<mxfile host="app.diagrams.net" agent="Mozilla/5.0 (Windows NT 10.0; Win64; x64) AppleWebKit/537.36 (KHTML, like Gecko) Chrome/137.0.0.0 Safari/537.36" version="27.1.6">
  <diagram name="Page-1" id="_kV0I9NYV_SavoV6ZU13">
    <mxGraphModel dx="1042" dy="570" grid="1" gridSize="10" guides="1" tooltips="1" connect="1" arrows="1" fold="1" page="1" pageScale="1" pageWidth="850" pageHeight="1100" math="0" shadow="0">
      <root>
        <mxCell id="0" />
        <mxCell id="1" parent="0" />
        <mxCell id="jzXcLy6MFpgxpmEWIrOR-1" value="Rezervacija termina od strane klijenta" style="rounded=0;whiteSpace=wrap;html=1;" vertex="1" parent="1">
          <mxGeometry x="250" y="40" width="350" height="40" as="geometry" />
        </mxCell>
        <mxCell id="jzXcLy6MFpgxpmEWIrOR-2" value="Klijent" style="rounded=0;whiteSpace=wrap;html=1;" vertex="1" parent="1">
          <mxGeometry x="190" y="100" width="190" height="40" as="geometry" />
        </mxCell>
        <mxCell id="jzXcLy6MFpgxpmEWIrOR-3" value="Salon ljepote" style="rounded=0;whiteSpace=wrap;html=1;" vertex="1" parent="1">
          <mxGeometry x="460" y="100" width="210" height="40" as="geometry" />
        </mxCell>
        <mxCell id="jzXcLy6MFpgxpmEWIrOR-4" value="Posjecuje stranicu za rezervacije" style="rounded=0;whiteSpace=wrap;html=1;" vertex="1" parent="1">
          <mxGeometry x="225" y="170" width="135" height="60" as="geometry" />
        </mxCell>
        <mxCell id="jzXcLy6MFpgxpmEWIrOR-5" value="Odabire uslugu i zaposlenika" style="rounded=0;whiteSpace=wrap;html=1;" vertex="1" parent="1">
          <mxGeometry x="225" y="250" width="135" height="60" as="geometry" />
        </mxCell>
        <mxCell id="jzXcLy6MFpgxpmEWIrOR-6" value="Pregledava i odabire zeljeni termin" style="rounded=0;whiteSpace=wrap;html=1;" vertex="1" parent="1">
          <mxGeometry x="225" y="340" width="135" height="60" as="geometry" />
        </mxCell>
        <mxCell id="jzXcLy6MFpgxpmEWIrOR-7" value="Unosi svoje podatke" style="rounded=0;whiteSpace=wrap;html=1;" vertex="1" parent="1">
          <mxGeometry x="227.5" y="430" width="132.5" height="60" as="geometry" />
        </mxCell>
        <mxCell id="jzXcLy6MFpgxpmEWIrOR-8" value="Potvrduje rezervaciju" style="rounded=0;whiteSpace=wrap;html=1;" vertex="1" parent="1">
          <mxGeometry x="227.5" y="520" width="132.5" height="60" as="geometry" />
        </mxCell>
        <mxCell id="jzXcLy6MFpgxpmEWIrOR-10" value="Vidi poruku o statusu" style="rounded=0;whiteSpace=wrap;html=1;" vertex="1" parent="1">
          <mxGeometry x="225" y="610" width="135" height="60" as="geometry" />
        </mxCell>
        <mxCell id="jzXcLy6MFpgxpmEWIrOR-11" value="Prikazuje listu usluga i zaposlenika" style="rounded=0;whiteSpace=wrap;html=1;" vertex="1" parent="1">
          <mxGeometry x="480" y="170" width="140" height="60" as="geometry" />
        </mxCell>
        <mxCell id="jzXcLy6MFpgxpmEWIrOR-12" value="Prikazuje termine" style="rounded=0;whiteSpace=wrap;html=1;" vertex="1" parent="1">
          <mxGeometry x="480" y="250" width="140" height="60" as="geometry" />
        </mxCell>
        <mxCell id="jzXcLy6MFpgxpmEWIrOR-16" value="Prikazuje poruku o gresci" style="rounded=0;whiteSpace=wrap;html=1;" vertex="1" parent="1">
          <mxGeometry x="425" y="540" width="120" height="60" as="geometry" />
        </mxCell>
        <mxCell id="jzXcLy6MFpgxpmEWIrOR-17" value="Prikazuje poruku o uspjehu" style="rounded=0;whiteSpace=wrap;html=1;" vertex="1" parent="1">
          <mxGeometry x="570" y="540" width="120" height="60" as="geometry" />
        </mxCell>
        <mxCell id="jzXcLy6MFpgxpmEWIrOR-23" value="" style="endArrow=classic;html=1;rounded=0;exitX=1;exitY=0.5;exitDx=0;exitDy=0;entryX=0;entryY=0.5;entryDx=0;entryDy=0;" edge="1" parent="1" source="jzXcLy6MFpgxpmEWIrOR-6" target="jzXcLy6MFpgxpmEWIrOR-39">
          <mxGeometry width="50" height="50" relative="1" as="geometry">
            <mxPoint x="390" y="310" as="sourcePoint" />
            <mxPoint x="480" y="370" as="targetPoint" />
          </mxGeometry>
        </mxCell>
        <mxCell id="jzXcLy6MFpgxpmEWIrOR-24" value="" style="endArrow=classic;html=1;rounded=0;exitX=0.5;exitY=1;exitDx=0;exitDy=0;entryX=0.5;entryY=0;entryDx=0;entryDy=0;" edge="1" parent="1" source="jzXcLy6MFpgxpmEWIrOR-6" target="jzXcLy6MFpgxpmEWIrOR-7">
          <mxGeometry width="50" height="50" relative="1" as="geometry">
            <mxPoint x="430" y="370" as="sourcePoint" />
            <mxPoint x="430" y="400" as="targetPoint" />
          </mxGeometry>
        </mxCell>
        <mxCell id="jzXcLy6MFpgxpmEWIrOR-25" value="" style="endArrow=classic;html=1;rounded=0;exitX=0.58;exitY=1.01;exitDx=0;exitDy=0;exitPerimeter=0;entryX=0.574;entryY=0.003;entryDx=0;entryDy=0;entryPerimeter=0;" edge="1" parent="1" source="jzXcLy6MFpgxpmEWIrOR-7" target="jzXcLy6MFpgxpmEWIrOR-8">
          <mxGeometry width="50" height="50" relative="1" as="geometry">
            <mxPoint x="420" y="490" as="sourcePoint" />
            <mxPoint x="420" y="520" as="targetPoint" />
          </mxGeometry>
        </mxCell>
        <mxCell id="jzXcLy6MFpgxpmEWIrOR-26" value="" style="endArrow=classic;html=1;rounded=0;exitX=0.5;exitY=1;exitDx=0;exitDy=0;entryX=0.5;entryY=0;entryDx=0;entryDy=0;" edge="1" parent="1" source="jzXcLy6MFpgxpmEWIrOR-8" target="jzXcLy6MFpgxpmEWIrOR-10">
          <mxGeometry width="50" height="50" relative="1" as="geometry">
            <mxPoint x="400" y="580" as="sourcePoint" />
            <mxPoint x="400" y="610" as="targetPoint" />
          </mxGeometry>
        </mxCell>
        <mxCell id="jzXcLy6MFpgxpmEWIrOR-29" value="" style="endArrow=classic;html=1;rounded=0;exitX=0;exitY=1;exitDx=0;exitDy=0;entryX=0.5;entryY=0;entryDx=0;entryDy=0;" edge="1" parent="1" source="jzXcLy6MFpgxpmEWIrOR-39" target="jzXcLy6MFpgxpmEWIrOR-16">
          <mxGeometry width="50" height="50" relative="1" as="geometry">
            <mxPoint x="505" y="500" as="sourcePoint" />
            <mxPoint x="540" y="550" as="targetPoint" />
          </mxGeometry>
        </mxCell>
        <mxCell id="jzXcLy6MFpgxpmEWIrOR-40" value="NE" style="edgeLabel;html=1;align=center;verticalAlign=middle;resizable=0;points=[];" vertex="1" connectable="0" parent="jzXcLy6MFpgxpmEWIrOR-29">
          <mxGeometry x="-0.2098" y="1" relative="1" as="geometry">
            <mxPoint as="offset" />
          </mxGeometry>
        </mxCell>
        <mxCell id="jzXcLy6MFpgxpmEWIrOR-30" value="" style="endArrow=classic;html=1;rounded=0;exitX=1;exitY=1;exitDx=0;exitDy=0;entryX=0.5;entryY=0;entryDx=0;entryDy=0;" edge="1" parent="1" source="jzXcLy6MFpgxpmEWIrOR-39" target="jzXcLy6MFpgxpmEWIrOR-17">
          <mxGeometry width="50" height="50" relative="1" as="geometry">
            <mxPoint x="595" y="500" as="sourcePoint" />
            <mxPoint x="600" y="540" as="targetPoint" />
          </mxGeometry>
        </mxCell>
        <mxCell id="jzXcLy6MFpgxpmEWIrOR-41" value="DA" style="edgeLabel;html=1;align=center;verticalAlign=middle;resizable=0;points=[];" vertex="1" connectable="0" parent="jzXcLy6MFpgxpmEWIrOR-30">
          <mxGeometry x="0.0154" y="3" relative="1" as="geometry">
            <mxPoint as="offset" />
          </mxGeometry>
        </mxCell>
        <mxCell id="jzXcLy6MFpgxpmEWIrOR-31" value="" style="endArrow=classic;html=1;rounded=0;exitX=0.5;exitY=1;exitDx=0;exitDy=0;entryX=0.997;entryY=0.637;entryDx=0;entryDy=0;entryPerimeter=0;" edge="1" parent="1" target="jzXcLy6MFpgxpmEWIrOR-10">
          <mxGeometry width="50" height="50" relative="1" as="geometry">
            <mxPoint x="610" y="600" as="sourcePoint" />
            <mxPoint x="610" y="630" as="targetPoint" />
            <Array as="points">
              <mxPoint x="610" y="650" />
            </Array>
          </mxGeometry>
        </mxCell>
        <mxCell id="jzXcLy6MFpgxpmEWIrOR-33" value="" style="ellipse;whiteSpace=wrap;html=1;aspect=fixed;fillColor=#000000;" vertex="1" parent="1">
          <mxGeometry x="277.5" y="730" width="30" height="30" as="geometry" />
        </mxCell>
        <mxCell id="jzXcLy6MFpgxpmEWIrOR-34" value="" style="endArrow=classic;html=1;rounded=0;exitX=0.5;exitY=1;exitDx=0;exitDy=0;" edge="1" parent="1" source="jzXcLy6MFpgxpmEWIrOR-10">
          <mxGeometry width="50" height="50" relative="1" as="geometry">
            <mxPoint x="400" y="590" as="sourcePoint" />
            <mxPoint x="293" y="720" as="targetPoint" />
          </mxGeometry>
        </mxCell>
        <mxCell id="jzXcLy6MFpgxpmEWIrOR-36" value="" style="endArrow=classic;html=1;rounded=0;exitX=0.5;exitY=1;exitDx=0;exitDy=0;entryX=0.5;entryY=0;entryDx=0;entryDy=0;" edge="1" parent="1" source="jzXcLy6MFpgxpmEWIrOR-3" target="jzXcLy6MFpgxpmEWIrOR-11">
          <mxGeometry width="50" height="50" relative="1" as="geometry">
            <mxPoint x="400" y="240" as="sourcePoint" />
            <mxPoint x="450" y="190" as="targetPoint" />
          </mxGeometry>
        </mxCell>
        <mxCell id="jzXcLy6MFpgxpmEWIrOR-37" value="" style="endArrow=classic;html=1;rounded=0;exitX=0.5;exitY=1;exitDx=0;exitDy=0;entryX=0.5;entryY=0;entryDx=0;entryDy=0;" edge="1" parent="1" source="jzXcLy6MFpgxpmEWIrOR-11" target="jzXcLy6MFpgxpmEWIrOR-12">
          <mxGeometry width="50" height="50" relative="1" as="geometry">
            <mxPoint x="400" y="240" as="sourcePoint" />
            <mxPoint x="470" y="200" as="targetPoint" />
          </mxGeometry>
        </mxCell>
        <mxCell id="jzXcLy6MFpgxpmEWIrOR-38" value="" style="endArrow=classic;html=1;rounded=0;exitX=0.5;exitY=1;exitDx=0;exitDy=0;entryX=0.5;entryY=0;entryDx=0;entryDy=0;" edge="1" parent="1" source="jzXcLy6MFpgxpmEWIrOR-12">
          <mxGeometry width="50" height="50" relative="1" as="geometry">
            <mxPoint x="570" y="320" as="sourcePoint" />
            <mxPoint x="550" y="340" as="targetPoint" />
          </mxGeometry>
        </mxCell>
        <mxCell id="jzXcLy6MFpgxpmEWIrOR-39" value="Je li odabrani termin slobodan?" style="rhombus;whiteSpace=wrap;html=1;" vertex="1" parent="1">
          <mxGeometry x="480" y="340" width="140" height="120" as="geometry" />
        </mxCell>
        <mxCell id="jzXcLy6MFpgxpmEWIrOR-42" value="" style="endArrow=classic;html=1;rounded=0;exitX=1;exitY=0.5;exitDx=0;exitDy=0;entryX=0;entryY=0.5;entryDx=0;entryDy=0;" edge="1" parent="1" source="jzXcLy6MFpgxpmEWIrOR-4" target="jzXcLy6MFpgxpmEWIrOR-11">
          <mxGeometry width="50" height="50" relative="1" as="geometry">
            <mxPoint x="400" y="370" as="sourcePoint" />
            <mxPoint x="450" y="320" as="targetPoint" />
          </mxGeometry>
        </mxCell>
        <mxCell id="jzXcLy6MFpgxpmEWIrOR-43" value="" style="endArrow=classic;html=1;rounded=0;exitX=0;exitY=1;exitDx=0;exitDy=0;entryX=1;entryY=0.5;entryDx=0;entryDy=0;" edge="1" parent="1" source="jzXcLy6MFpgxpmEWIrOR-11" target="jzXcLy6MFpgxpmEWIrOR-5">
          <mxGeometry width="50" height="50" relative="1" as="geometry">
            <mxPoint x="400" y="370" as="sourcePoint" />
            <mxPoint x="450" y="320" as="targetPoint" />
          </mxGeometry>
        </mxCell>
        <mxCell id="jzXcLy6MFpgxpmEWIrOR-44" value="" style="endArrow=classic;html=1;rounded=0;exitX=1;exitY=1;exitDx=0;exitDy=0;entryX=0;entryY=0.5;entryDx=0;entryDy=0;" edge="1" parent="1" source="jzXcLy6MFpgxpmEWIrOR-5" target="jzXcLy6MFpgxpmEWIrOR-12">
          <mxGeometry width="50" height="50" relative="1" as="geometry">
            <mxPoint x="400" y="370" as="sourcePoint" />
            <mxPoint x="450" y="320" as="targetPoint" />
          </mxGeometry>
        </mxCell>
        <mxCell id="jzXcLy6MFpgxpmEWIrOR-45" value="" style="endArrow=classic;html=1;rounded=0;exitX=0;exitY=1;exitDx=0;exitDy=0;entryX=1;entryY=0.25;entryDx=0;entryDy=0;" edge="1" parent="1" source="jzXcLy6MFpgxpmEWIrOR-12" target="jzXcLy6MFpgxpmEWIrOR-6">
          <mxGeometry width="50" height="50" relative="1" as="geometry">
            <mxPoint x="400" y="370" as="sourcePoint" />
            <mxPoint x="450" y="320" as="targetPoint" />
          </mxGeometry>
        </mxCell>
        <mxCell id="jzXcLy6MFpgxpmEWIrOR-46" value="" style="ellipse;whiteSpace=wrap;html=1;aspect=fixed;fillColor=#000000;" vertex="1" parent="1">
          <mxGeometry x="400" y="110" width="30" height="30" as="geometry" />
        </mxCell>
        <mxCell id="jzXcLy6MFpgxpmEWIrOR-47" value="END" style="text;html=1;align=center;verticalAlign=middle;resizable=0;points=[];autosize=1;strokeColor=none;fillColor=none;" vertex="1" parent="1">
          <mxGeometry x="268.75" y="768" width="50" height="30" as="geometry" />
        </mxCell>
        <mxCell id="jzXcLy6MFpgxpmEWIrOR-48" value="START" style="text;html=1;align=center;verticalAlign=middle;resizable=0;points=[];autosize=1;strokeColor=none;fillColor=none;" vertex="1" parent="1">
          <mxGeometry x="385" y="80" width="60" height="30" as="geometry" />
        </mxCell>
        <mxCell id="jzXcLy6MFpgxpmEWIrOR-49" value="" style="endArrow=classic;html=1;rounded=0;exitX=0.5;exitY=1;exitDx=0;exitDy=0;entryX=1;entryY=0;entryDx=0;entryDy=0;" edge="1" parent="1" source="jzXcLy6MFpgxpmEWIrOR-46" target="jzXcLy6MFpgxpmEWIrOR-4">
          <mxGeometry width="50" height="50" relative="1" as="geometry">
            <mxPoint x="400" y="350" as="sourcePoint" />
            <mxPoint x="450" y="300" as="targetPoint" />
          </mxGeometry>
        </mxCell>
        <mxCell id="jzXcLy6MFpgxpmEWIrOR-50" value="" style="endArrow=none;html=1;rounded=0;entryX=1;entryY=1;entryDx=0;entryDy=0;" edge="1" parent="1" target="jzXcLy6MFpgxpmEWIrOR-2">
          <mxGeometry width="50" height="50" relative="1" as="geometry">
            <mxPoint x="380" y="700" as="sourcePoint" />
            <mxPoint x="450" y="290" as="targetPoint" />
          </mxGeometry>
        </mxCell>
        <mxCell id="jzXcLy6MFpgxpmEWIrOR-51" value="" style="endArrow=none;html=1;rounded=0;entryX=1;entryY=1;entryDx=0;entryDy=0;" edge="1" parent="1">
          <mxGeometry width="50" height="50" relative="1" as="geometry">
            <mxPoint x="190" y="700" as="sourcePoint" />
            <mxPoint x="190" y="140" as="targetPoint" />
          </mxGeometry>
        </mxCell>
        <mxCell id="jzXcLy6MFpgxpmEWIrOR-52" value="" style="endArrow=none;html=1;rounded=0;" edge="1" parent="1">
          <mxGeometry width="50" height="50" relative="1" as="geometry">
            <mxPoint x="190" y="700" as="sourcePoint" />
            <mxPoint x="380" y="700" as="targetPoint" />
          </mxGeometry>
        </mxCell>
        <mxCell id="jzXcLy6MFpgxpmEWIrOR-54" value="" style="endArrow=none;html=1;rounded=0;entryX=1;entryY=1;entryDx=0;entryDy=0;" edge="1" parent="1">
          <mxGeometry width="50" height="50" relative="1" as="geometry">
            <mxPoint x="460" y="520" as="sourcePoint" />
            <mxPoint x="460" y="140" as="targetPoint" />
          </mxGeometry>
        </mxCell>
        <mxCell id="jzXcLy6MFpgxpmEWIrOR-55" value="" style="endArrow=none;html=1;rounded=0;entryX=1;entryY=1;entryDx=0;entryDy=0;" edge="1" parent="1">
          <mxGeometry width="50" height="50" relative="1" as="geometry">
            <mxPoint x="670" y="520" as="sourcePoint" />
            <mxPoint x="670" y="140" as="targetPoint" />
          </mxGeometry>
        </mxCell>
        <mxCell id="jzXcLy6MFpgxpmEWIrOR-56" value="" style="endArrow=none;html=1;rounded=0;" edge="1" parent="1">
          <mxGeometry width="50" height="50" relative="1" as="geometry">
            <mxPoint x="410" y="520" as="sourcePoint" />
            <mxPoint x="460" y="520" as="targetPoint" />
          </mxGeometry>
        </mxCell>
        <mxCell id="jzXcLy6MFpgxpmEWIrOR-57" value="" style="endArrow=none;html=1;rounded=0;" edge="1" parent="1">
          <mxGeometry width="50" height="50" relative="1" as="geometry">
            <mxPoint x="670" y="520" as="sourcePoint" />
            <mxPoint x="720" y="520" as="targetPoint" />
          </mxGeometry>
        </mxCell>
        <mxCell id="jzXcLy6MFpgxpmEWIrOR-58" value="" style="endArrow=none;html=1;rounded=0;" edge="1" parent="1">
          <mxGeometry width="50" height="50" relative="1" as="geometry">
            <mxPoint x="410" y="620" as="sourcePoint" />
            <mxPoint x="410" y="520" as="targetPoint" />
          </mxGeometry>
        </mxCell>
        <mxCell id="jzXcLy6MFpgxpmEWIrOR-59" value="" style="endArrow=none;html=1;rounded=0;" edge="1" parent="1">
          <mxGeometry width="50" height="50" relative="1" as="geometry">
            <mxPoint x="720" y="620" as="sourcePoint" />
            <mxPoint x="720" y="520" as="targetPoint" />
          </mxGeometry>
        </mxCell>
        <mxCell id="jzXcLy6MFpgxpmEWIrOR-60" value="" style="endArrow=none;html=1;rounded=0;" edge="1" parent="1">
          <mxGeometry width="50" height="50" relative="1" as="geometry">
            <mxPoint x="410" y="620" as="sourcePoint" />
            <mxPoint x="720" y="620" as="targetPoint" />
          </mxGeometry>
        </mxCell>
      </root>
    </mxGraphModel>
  </diagram>
</mxfile>
